# xmcd
#
# Track frame offsets:
#	150
#	17203
#	38032
#	55356
#	73191
#	86654
#	106875
#	123057
#	137422
#	155472
#	170845
#	187001
#	205442
#	221750
#	240787
#	257169
#	273126
#	292003
#	310257
#
# Disc length: 4353
#
# Revision: 2
# Processed by: cddbd v1.5.1PL0 Copyright (c) Steve Scherf et al.
# Submitted via: FreeRIP 2.90 
# Normalized: r1:DSETVAR1,TDELIM( - )
#
DISCID=1810ff13
DTITLE=Various Artist - Promo Only Rhythm Radio 12 - 2004
DYEAR=2004
DGENRE=R and B
TTITLE0=Dido - Sand In My Shoes (Hani Num Radio Mix)
TTITLE1=Usher f. Fabolous - Caught Up (Remix)
TTITLE2=D.H.T - Listen To Your Heart
TTITLE3=Outkast - Ghetto Musick (Furious F. EZ Radio Edit) @
TTITLE4=Angel City - Do You Know (I Go Crazy)
TTITLE5=Snoop Dogg f. Pharrell - Drop It Like It's Hot @
TTITLE6=Emma - Free Me (Dr. Octavo Seduction Radio Edit)
TTITLE7=Tiesto f. Kirsty Hawkshaw - Just Be (Antillas Radio Cut)
TTITLE8=Nicole Wray - If I Was Your Girlfriend @
TTITLE9=J Costa - All By Myself
TTITLE10=Chingy - Balla Baby @
TTITLE11=Taborah - I Am (The Rising) (Johnny Rocks Rhythm Remix)
TTITLE12=Guerilla Black f. Mario Winans - You're The One @
TTITLE13=Costanza - Ritmo Latino (Rhythm Remix)
TTITLE14=T.I. - Bring Em Out @
TTITLE15=Raw Deal - Party Time (Rambunctious Radio)
TTITLE16=Nina Sky f. Pitbull - Turnin Me On (Remix) @
TTITLE17=Fabolous f. Pharrell - Tit 4 Tat
TTITLE18=Anthony Gitto - Christmas Eve (Mac Q Remix)
EXTD=@ =Content Warning
EXTT0=
EXTT1=
EXTT2=
EXTT3=
EXTT4=
EXTT5=
EXTT6=
EXTT7=
EXTT8=
EXTT9=
EXTT10=
EXTT11=
EXTT12=
EXTT13=
EXTT14=
EXTT15=
EXTT16=
EXTT17=
EXTT18=
PLAYORDER=
